#!OML:ASF E:\emotionWalksFemale\Project 1\Capture day 1\Session 1\Female1.ASF
:FULLY-SPECIFIED
:DEGREES
383
root 7.71642 15.195 40.9066 185.867 -1.14443 -178.327
lowerback 7.94105 1.58095 2.4779
upperback -3.73636 2.38688 0.414497
thorax -8.32724 1.0187 -1.30709
lowerneck -3.90269 -4.38147 -8.32499
upperneck 9.95738 -6.3974 8.16512
head 4.13078 -3.1952 3.53367
rclavicle 7.88927e-015 6.26172e-015
rhumerus -46.4503 21.383 -95.8697
rradius 27.5441
rwrist 30.5855
rhand 6.994 -61.1832
rfingers 7.12502
rthumb 32.27 631.665
lclavicle 7.88927e-015 6.26172e-015
lhumerus -50.8097 -5.19564 87.8461
lradius 31.434
lwrist -30.51
lhand -2.87004 -28.9512
lfingers 7.12502
lthumb 22.8387 -0.283421
rfemur -9.75604 21.2361 21.6944
rtibia 29.4916
rfoot -24.2693 -27.7919
rtoes 0.352183
lfemur -9.45684 -22.501 -23.738
ltibia 27.9662
lfoot -30.3059 21.5011
ltoes -25.52
384
root 7.69627 15.1927 40.8679 186.233 -0.49301 -179.008
lowerback 7.46268 1.79895 1.59603
upperback -3.71735 2.5598 0.293874
thorax -8.05181 1.15299 -0.948124
lowerneck -3.91554 -4.38878 -8.29719
upperneck 9.73295 -6.37496 8.1179
head 4.06121 -3.17991 3.51674
rclavicle 2.98177e-014 2.38542e-015
rhumerus -46.7073 21.5234 -95.9236
rradius 27.3608
rwrist 30.6521
rhand 7.08481 -61.1225
rfingers 7.12502
rthumb 32.3564 631.744
lclavicle 2.98177e-014 2.38542e-015
lhumerus -51.0478 -4.77263 87.4327
lradius 30.8524
lwrist -32.2983
lhand -5.25316 -30.2254
lfingers 7.12502
lthumb 20.5502 -1.29312
rfemur -10.4376 21.0596 20.5895
rtibia 29.9852
rfoot -24.3216 -27.1054
rtoes -0.387454
lfemur -9.45801 -22.8518 -24.656
ltibia 27.7575
lfoot -30.4489 22.2377
ltoes -24.6263
385
root 7.67584 15.1927 40.837 187.01 0.758242 -179.073
lowerback 6.8021 2.16825 1.23434
upperback -3.91537 3.12041 0.257353
thorax -7.8845 1.49734 -0.845597
lowerneck -3.85512 -4.40577 -8.13726
upperneck 9.54469 -6.38366 8.01624
head 3.98701 -3.18172 3.46103
rclavicle 5.08516e-014 6.16232e-015
rhumerus -47.0233 21.2681 -95.9274
rradius 27.1687
rwrist 30.6137
rhand 6.90993 -61.1296
rfingers 7.12502
rthumb 32.19 631.703
lclavicle 5.08516e-014 6.16232e-015
lhumerus -51.3688 -4.79762 87.3317
lradius 30.7338
lwrist -32.6815
lhand -5.61104 -30.2949
lfingers 7.12502
lthumb 20.2062 -1.32583
rfemur -11.8011 20.87 19.8614
rtibia 30.4867
rfoot -23.7878 -26.201
rtoes -4.7972
lfemur -10.0208 -23.061 -24.7887
ltibia 27.6293
lfoot -30.7969 23.2353
ltoes -22.7702
386
root 7.64501 15.1652 40.8113 186.649 1.17923 -178.739
lowerback 7.31447 2.29851 1.84391
upperback -3.77057 3.35462 0.240171
thorax -7.98751 1.57263 -1.25496
lowerneck -3.79105 -4.39486 -8.00675
upperneck 9.31371 -6.35979 8.01318
head 3.90053 -3.16441 3.44298
rclavicle -1.91454e-014 1.13307e-014
rhumerus -47.2161 20.7359 -95.8805
rradius 27.0836
rwrist 30.2246
rhand 6.44206 -61.1993
rfingers 7.12502
rthumb 31.7444 631.544
lclavicle -1.91454e-014 1.13307e-014
lhumerus -51.6256 -5.35403 87.4763
lradius 30.9514
lwrist -31.9331
lhand -5.05424 -29.6174
lfingers 7.12502
lthumb 20.7413 -0.705815
rfemur -11.6375 19.9141 20.2317
rtibia 31.0193
rfoot -23.1027 -25.6651
rtoes -10.6268
lfemur -9.37155 -22.9081 -24.8657
ltibia 27.5135
lfoot -30.826 23.3814
ltoes -21.6092
387
root 7.63378 15.1636 40.7988 186.931 0.533146 -178.652
lowerback 7.38236 2.03256 1.9549
upperback -3.84982 3.02285 0.304651
thorax -8.12085 1.40568 -1.20895
lowerneck -3.99367 -4.37748 -8.05027
upperneck 9.24466 -6.32751 8.19986
head 3.91802 -3.13523 3.50556
rclavicle 2.03257e-014 -1.98785e-015
rhumerus -47.6029 20.6325 -96.0632
rradius 27.3334
rwrist 28.7341
rhand 5.57985 -61.551
rfingers 7.12502
rthumb 30.9229 631.033
lclavicle 2.03257e-014 -1.98785e-015
lhumerus -52.0314 -5.7965 87.667
lradius 31.3485
lwrist -31.0838
lhand -4.69493 -28.9209
lfingers 7.12502
lthumb 21.0865 -0.0474311
rfemur -12.0389 18.9765 20.384
rtibia 31.559
rfoot -22.9114 -25.7683
rtoes -11.6285
lfemur -9.73373 -22.5271 -24.5364
ltibia 27.4279
lfoot -30.241 22.4412
ltoes -22.4719
388
root 7.62383 15.1728 40.7826 187.09 0.239289 -178.89
lowerback 7.61443 1.85018 1.52574
upperback -3.93579 2.74572 0.380287
thorax -8.38094 1.29249 -0.86206
lowerneck -3.86476 -4.2993 -8.27459
upperneck 8.96241 -6.21654 8.46464
head 3.81691 -3.07814 3.63475
rclavicle -5.66536e-015 -3.97569e-016
rhumerus -48.2075 20.9995 -96.4395
rradius 27.7456
rwrist 26.5135
rhand 4.43762 -62.0813
rfingers 7.12502
rthumb 29.8334 630.301
lclavicle -5.66536e-015 -3.97569e-016
lhumerus -52.5064 -5.56757 87.5662
lradius 31.6926
lwrist -31.0952
lhand -4.39396 -28.6761
lfingers 7.12502
lthumb 21.3756 0.164811
rfemur -12.4326 18.5918 20.1126
rtibia 32.1726
rfoot -23.4141 -25.4845
rtoes -7.61818
lfemur -9.8826 -22.3985 -24.721
ltibia 27.3781
lfoot -30.0203 21.9285
ltoes -22.9666
389
root 7.60584 15.173 40.7415 187.165 0.30807 -179.151
lowerback 7.58 1.81726 1.1122
upperback -3.91997 2.6573 0.429243
thorax -8.3662 1.27386 -0.564545
lowerneck -3.8871 -4.29391 -8.2144
upperneck 8.71468 -6.16644 8.32573
head 3.73626 -3.0513 3.58574
rclavicle -3.06563e-014 -1.19271e-014
rhumerus -48.6384 21.2658 -96.7279
rradius 27.9879
rwrist 24.4149
rhand 3.14985 -62.2647
rfingers 7.12502
rthumb 28.6037 810.096
lclavicle -3.06563e-014 -1.19271e-014
lhumerus -52.8431 -5.35341 87.5064
lradius 31.9497
lwrist -31.1076
lhand -5.74781 -28.2974
lfingers 7.12502
lthumb 20.0748 0.685516
rfemur -12.8179 18.2246 19.7787
rtibia 33.0015
rfoot -23.9815 -24.9088
rtoes -3.78953
lfemur -9.63982 -22.5526 -25.1285
ltibia 27.1144
lfoot -30.0848 22.0517
ltoes -22.2129
